<svg width="500" height="400" xmlns="http://www.w3.org/2000/svg"><title>background</title><path fill="none" d="M-1-1h502v402H-1z"/><title>Layer 1</title><path stroke="#c9c9c9" d="M225.163 273.786l-13.177.324-12.864 43.042 101.34.647-13.805-43.365-61.494-.648z" stroke-width="1.5" fill="#c9c9c9"/><path fill-opacity=".2" d="M407.535 37.882c-24.37-6.723 10.952-6.976 10.952 7.79 0 14.768-.791 221.055-.842 225.073-.05 4.018-.834 10.388-10.952 10.388s-117.945-.866-118.787-.866c.842 0 5.897 13.85 5.055 13.85h-87.617c.843 0 5.055-13.85 4.213-13.85H93.297c.842 0-9.267 2.597-7.582-13.85 1.685-16.448 321.82-228.535 321.82-228.535zm-278.9 304.954h250.806v54.502H128.635z"/><path fill="#98999b" d="M124.756 340.8h250.806v49.431H124.756z"/><path fill="#fbfbfd" d="M131.715 348.614h240.777v41.526H131.715z"/><path stroke-width="3" stroke-linecap="null" stroke-linejoin="null" stroke="#98999b" fill="none" d="M127.508 362.783l246.602.324m-247.573 13.916l246.602.323"/><path stroke="#98999b" stroke-width="6" stroke-linecap="null" stroke-linejoin="null" fill="none" d="M124.791 391.142l250.716 1.267"/><path stroke="#98999b" stroke-width="3" stroke-linecap="null" stroke-linejoin="null" fill="none" d="M144.808 347.693v43.372m44.836-43.169v42.901m-30.097-44.667v44.787m14.887-43.169v41.485m32.011-41.309v39.598m15.062-40.541v44.315m15.359-43.696v44.316m13.647-45.58v44.016m16.653-41.66v41.485m15.83-42.429v38.655m15.21-38.655v32.523m14.267-32.523v44.787m15.534-47.617v48.089m14.563-45.73v45.73"/><path d="M294.277 303.71l88.554.301s31.53-1.574 31.627 15.362c.096 16.936.602 28.313.602 28.313" opacity=".5" stroke-width="1.5" stroke="#818286" fill="none"/><path stroke="#98999b" stroke-width="3" stroke-linecap="null" stroke-linejoin="null" fill="none" d="M358.576 346.805v47.145"/><path fill="#fbfbfd" d="M190.79 378.137h120.388v10.761H190.79z"/><path d="M206.472 320.102l-13.592-.36s-4.854.36-4.53 3.608c.323 3.249-1.619 5.775 4.854 5.775H316.18s6.15.36 7.12-2.887c.97-3.249 1.294-5.053-5.502-5.414-6.796-.361-111.327-.722-111.327-.722z" fill-opacity=".2"/><path d="M202.589 316.505l-13.592-.324s-4.855.324-4.531 3.236c.324 2.913-1.618 5.178 4.854 5.178h122.978s6.149.324 7.12-2.589c.97-2.912 1.294-4.53-5.502-4.854-6.796-.324-111.327-.647-111.327-.647zM77.84 242.348l-.374 20.077c.374 0-2.996 9.653 11.608 10.039 14.603.386 307.051 1.544 307.051 1.158 0-.386 15.353 2.317 15.353-11.583v-20.463s-305.18-.386-333.638.772z" fill="#f2f2f2"/><path d="M78.676 241.176l.738-197.058c.246 0 .737-16.667 13.52-16.177 12.783.49 293.02 0 292.774 0 .246 0 24.828-2.45 25.32 12.745.492 15.196.492 201.47.492 200.98 0-.49-205.508 0-332.844-.49z" fill="#2d4f5b"/><path d="M79.657 239.706c.49-.49 67.647-36.275 67.647-36.765 0-.49 154.902-174.51 154.657-174.51h92.647c.245 0 15.441 3.922 16.421 18.628.98 14.706-.98 194.117-1.225 194.117.245 0-330.637-.98-330.147-1.47z" fill="#2d4f5b"/><path fill="#d9f1f3" d="M92.892 40.588h304.902v186.275H92.892z"/><path stroke="null" stroke-width="1.5" fill="#fff" d="M105.637 53.699h277.451v161.765H105.637z"/><path stroke="null" stroke-opacity="null" stroke-width="1.5" fill="#19a0e0" d="M105.37 52.718h277.718v10.249H105.37z"/><path fill-opacity="null" stroke-opacity="null" stroke-width="1.5" stroke="null" fill="#19a0e0" d="M111.52 73.039h266.667v49.02H111.52z"/><path stroke-width="1.5" stroke="null" fill="#87c8ce" d="M111.029 73.039h266.667v49.02H111.029z"/><path stroke="null" stroke-opacity="null" stroke-width="1.5" fill="#87c8ce" d="M111.52 132.843h64.706v71.569H111.52z"/><path stroke="null" stroke-opacity="null" stroke-width="1.5" fill="#86c0e8" d="M186.029 131.863h192.647v24.02H186.029z"/><path stroke="null" stroke-opacity="null" stroke-width="1.5" fill="#a9d5dd" d="M187.01 164.706h55.392v39.216H187.01z"/><path stroke="null" stroke-width="1.5" fill="#a9d5dd" d="M252.518 164.706h55.392v39.216h-55.392zm69.296-.49h55.392v39.216h-55.392z"/><text stroke="null" transform="matrix(1.25454 0 0 1.09226 -36.594 -3.288)" font-family="Helvetica, Arial, sans-serif" font-size="26" y="98.902" x="136.078" stroke-width="0" fill="#fff">php academy</text><ellipse ry="2.227" rx="2.339" cy="58.129" cx="111.915" stroke-opacity="null" stroke-width="1.5" stroke="null" fill="#df755d"/><ellipse ry="2.227" rx="2.339" cy="57.906" cx="119.265" stroke-opacity="null" stroke-width="1.5" stroke="null" fill="#e4bb70"/><ellipse ry="2.227" rx="2.339" cy="58.129" cx="127.505" stroke-opacity="null" stroke-width="1.5" stroke="null" fill="#8bcc78"/><path stroke="null" fill-opacity=".2" d="M374.21 142.332c.061.649-.137.69-2.356.5-1.121-.096-2.06-.16-2.086-.143-.026.018 1.032 1.646 2.352 3.618l2.398 3.586-1.368.914-1.367.915-2.417-3.615c-1.864-2.786-2.438-3.555-2.507-3.358-.049.141-.364 1.09-.701 2.11-.635 1.92-.991 2.157-1.793 1.196-.4-.478-1.547-11.316-1.26-11.906 3.466 1.547 7.36 3.563 10.877 5.467.104.155.207.477.229.716z" stroke-opacity="null" stroke-width="1.5" fill="#000009"/><path stroke="null" d="M372.473 142.015c.057.644-.14.686-2.352.51-1.117-.09-2.051-.15-2.077-.132-.026.017 1.02 1.627 2.324 3.577l2.371 3.546-1.367.914-1.367.915-2.39-3.574c-1.844-2.756-2.411-3.515-2.48-3.32-.05.141-.37 1.084-.71 2.097-.644 1.909-1 2.147-1.794 1.197-.396-.472-1.483-11.22-1.194-11.807 3.446 1.517 7.316 3.497 10.811 5.368.103.153.204.473.225.71z" stroke-opacity="null" stroke-width="1.5" fill="#fff"/><path d="M411.704 349.281c2.875-1.848 5.75-3.696 10.267-2.258 4.518 1.437 8.008 2.874 8.214 9.034.205 6.16.821 14.785.205 18.48-.616 3.697.41 5.34-3.285 8.01-3.696 2.669-6.777 4.722-13.142 2.258-6.366-2.464-6.16-8.419-6.16-11.088 0-2.67-.41-8.625-.41-15.196 0-6.57 1.436-7.392 4.311-9.24z" fill-opacity=".2"/><path d="M407.392 346.201c2.875-1.848 5.75-3.696 10.267-2.259 4.518 1.438 8.008 2.875 8.214 9.035.205 6.16.82 14.785.205 18.48-.616 3.697.41 5.34-3.285 8.009-3.697 2.67-6.777 4.723-13.142 2.259-6.366-2.464-6.16-8.42-6.16-11.089 0-2.669-.411-8.624-.411-15.195 0-6.57 1.437-7.392 4.312-9.24z" fill="#818286"/><path fill="#fbfbfd" d="M412.731 349.076h3.901v8.83h-3.901z"/><text stroke="null" transform="matrix(1.29863 0 0 1.09226 -60.886 -3.288)" font-family="Helvetica, Arial, sans-serif" font-size="26" y="100.091" x="304.935" stroke-width="0" fill="#fff">.</text><text stroke="null" transform="matrix(1.29863 0 0 1.09226 -50.497 -3.288)" font-family="Helvetica, Arial, sans-serif" font-size="26" y="100.091" x="304.935" stroke-width="0" fill="#fff">.</text><text stroke="null" transform="matrix(1.29863 0 0 1.09226 -50.497 -3.288)" font-family="Helvetica, Arial, sans-serif" font-size="26" y="100.091" x="312.936" stroke-width="0" fill="#fff">.</text></svg>